<svg width="48" height="52" viewBox="0 0 48 52" fill="none" xmlns="http://www.w3.org/2000/svg">
<g clip-path="url(#clip0_96_15)">
<path d="M42.8571 3.25H5.14286C3.77889 3.25 2.47078 3.76361 1.50631 4.67785C0.541835 5.59209 0 6.83207 0 8.125L0 43.875C0 45.1679 0.541835 46.4079 1.50631 47.3221C2.47078 48.2364 3.77889 48.75 5.14286 48.75H19.8482V33.281H13.0982V26H19.8482V20.4506C19.8482 14.1385 23.8125 10.6519 29.8843 10.6519C32.7921 10.6519 35.8329 11.1434 35.8329 11.1434V17.3388H32.4825C29.1814 17.3388 28.1518 19.2806 28.1518 21.2723V26H35.5211L34.3425 33.281H28.1518V48.75H42.8571C44.2211 48.75 45.5292 48.2364 46.4937 47.3221C47.4582 46.4079 48 45.1679 48 43.875V8.125C48 6.83207 47.4582 5.59209 46.4937 4.67785C45.5292 3.76361 44.2211 3.25 42.8571 3.25V3.25Z" fill="white"/>
</g>
<defs>
<clipPath id="clip0_96_15">
<rect width="48" height="52" fill="white"/>
</clipPath>
</defs>
</svg>
