<svg width="48" height="52" viewBox="0 0 48 52" fill="none" xmlns="http://www.w3.org/2000/svg">
<g clip-path="url(#clip0_96_17)">
<path d="M24.0107 14.3205C17.1964 14.3205 11.7 19.5307 11.7 25.99C11.7 32.4494 17.1964 37.6596 24.0107 37.6596C30.825 37.6596 36.3214 32.4494 36.3214 25.99C36.3214 19.5307 30.825 14.3205 24.0107 14.3205ZM24.0107 33.5768C19.6071 33.5768 16.0071 30.1744 16.0071 25.99C16.0071 21.8057 19.5964 18.4033 24.0107 18.4033C28.425 18.4033 32.0143 21.8057 32.0143 25.99C32.0143 30.1744 28.4143 33.5768 24.0107 33.5768V33.5768ZM39.6964 13.8432C39.6964 15.3564 38.4107 16.565 36.825 16.565C35.2286 16.565 33.9536 15.3463 33.9536 13.8432C33.9536 12.34 35.2393 11.1213 36.825 11.1213C38.4107 11.1213 39.6964 12.34 39.6964 13.8432ZM47.85 16.6057C47.6678 12.9596 46.7893 9.72988 43.9714 7.06895C41.1643 4.40801 37.7571 3.5752 33.9107 3.39238C29.9464 3.1791 18.0643 3.1791 14.1 3.39238C10.2643 3.56504 6.85712 4.39785 4.03926 7.05879C1.22141 9.71973 0.35355 12.9494 0.160693 16.5955C-0.0643066 20.3533 -0.0643066 31.6166 0.160693 35.3744C0.342836 39.0205 1.22141 42.2502 4.03926 44.9111C6.85712 47.5721 10.2536 48.4049 14.1 48.5877C18.0643 48.801 29.9464 48.801 33.9107 48.5877C37.7571 48.415 41.1643 47.5822 43.9714 44.9111C46.7786 42.2502 47.6571 39.0205 47.85 35.3744C48.075 31.6166 48.075 20.3635 47.85 16.6057V16.6057ZM42.7286 39.4064C41.8928 41.3971 40.275 42.9307 38.1643 43.733C35.0036 44.9213 27.5036 44.6471 24.0107 44.6471C20.5178 44.6471 13.0071 44.9111 9.85712 43.733C7.75712 42.9408 6.13927 41.4072 5.29284 39.4064C4.03927 36.4104 4.32855 29.301 4.32855 25.99C4.32855 22.6791 4.04998 15.5596 5.29284 12.5736C6.12855 10.583 7.74641 9.04941 9.85712 8.24707C13.0178 7.05879 20.5178 7.33301 24.0107 7.33301C27.5036 7.33301 35.0143 7.06894 38.1643 8.24707C40.2643 9.03926 41.8821 10.5729 42.7286 12.5736C43.9821 15.5697 43.6928 22.6791 43.6928 25.99C43.6928 29.301 43.9821 36.4205 42.7286 39.4064Z" fill="white"/>
</g>
<defs>
<clipPath id="clip0_96_17">
<rect width="48" height="52" fill="white"/>
</clipPath>
</defs>
</svg>
