<svg width="35" height="35" viewBox="0 0 35 35" fill="none" xmlns="http://www.w3.org/2000/svg">
<path d="M11.375 21.4375H28L31.0625 9.1875H8.3125" stroke="#FE5C95" stroke-width="2" stroke-linecap="round" stroke-linejoin="round"/>
<path d="M12.6659 26.6013L7.4375 5.6875H3.9375" stroke="#FE5C95" stroke-width="2" stroke-linecap="round" stroke-linejoin="round"/>
<path d="M11.5509 26.9061C12.2543 26.5 13.1209 26.5 13.8243 26.9061C14.5276 27.3121 14.9609 28.0626 14.9609 28.8748C14.9609 29.687 14.5276 30.4375 13.8243 30.8436C13.1209 31.2496 12.2543 31.2496 11.5509 30.8436C10.8476 30.4375 10.4143 29.687 10.4143 28.8748C10.4143 28.0626 10.8476 27.3121 11.5509 26.9061Z" stroke="#FE5C95" stroke-width="2" stroke-linecap="round" stroke-linejoin="round"/>
<path d="M13.3081 26.6875H26.504" stroke="#FE5C95" stroke-width="2" stroke-linecap="round" stroke-linejoin="round"/>
<path d="M25.9884 26.9061C26.6918 26.5 27.5584 26.5 28.2618 26.9061C28.9651 27.3121 29.3984 28.0626 29.3984 28.8748C29.3984 29.687 28.9651 30.4375 28.2618 30.8436C27.5584 31.2496 26.6918 31.2496 25.9884 30.8436C25.2851 30.4375 24.8518 29.687 24.8518 28.8748C24.8518 28.0626 25.2851 27.3121 25.9884 26.9061Z" stroke="#FE5C95" stroke-width="2" stroke-linecap="round" stroke-linejoin="round"/>
</svg>
