<svg width="35" height="35" viewBox="0 0 35 35" fill="none" xmlns="http://www.w3.org/2000/svg">
<path d="M26.25 30.6254H8.75C7.78352 30.6254 7 29.8419 7 28.8754V28.2907C7 25.7477 8.57767 23.4716 10.9589 22.5791C15.1764 20.9984 19.8236 20.9984 24.0411 22.5791C26.4223 23.4716 28 25.7477 28 28.2907V28.8754C28 29.8419 27.2165 30.6254 26.25 30.6254Z" stroke="#FE5C95" stroke-width="2" stroke-linecap="round" stroke-linejoin="round"/>
<path d="M14.8317 17.0045C16.5064 17.8648 18.4932 17.8648 20.1679 17.0045C21.7266 16.2039 22.8432 14.7457 23.2099 13.0323L23.3077 12.5749C23.6827 10.8227 23.2822 8.99409 22.2093 7.55896L22.0521 7.34883C20.979 5.91352 19.2919 5.06836 17.4998 5.06836C15.7077 5.06836 14.0206 5.91352 12.9475 7.34883L12.7904 7.55896C11.7174 8.99409 11.317 10.8227 11.6919 12.5749L11.7898 13.0323C12.1564 14.7457 13.2731 16.2039 14.8317 17.0045Z" stroke="#FE5C95" stroke-width="2" stroke-linecap="round" stroke-linejoin="round"/>
</svg>
