<svg width="48" height="48" viewBox="0 0 48 48" fill="none" xmlns="http://www.w3.org/2000/svg">
<path d="M45.8046 11.6328C45.2811 9.41559 43.739 7.66941 41.7809 7.07681C38.2317 6 24 6 24 6C24 6 9.7683 6 6.21905 7.07681C4.26097 7.6695 2.7188 9.41559 2.19538 11.6328C1.24438 15.6516 1.24438 24.0364 1.24438 24.0364C1.24438 24.0364 1.24438 32.4212 2.19538 36.44C2.7188 38.6572 4.26097 40.3306 6.21905 40.9232C9.7683 42 24 42 24 42C24 42 38.2316 42 41.7809 40.9232C43.739 40.3306 45.2811 38.6572 45.8046 36.44C46.7556 32.4212 46.7556 24.0364 46.7556 24.0364C46.7556 24.0364 46.7556 15.6516 45.8046 11.6328V11.6328ZM19.3454 31.6492V16.4236L31.2403 24.0366L19.3454 31.6492V31.6492Z" fill="white"/>
</svg>
